# File created by Blade
# Date/Time:  Thu Jan 22 15:33:09 2015
#---------------------------------------------------------
:version 1.10
:name HOM
:units
  mass 1.0
  length 1.000000
  angle deg
:documentation
     Acclaim Skeleton File
:root
   axis xyz
   order TX TY TZ RX RY RZ
   position 0.000000 0.000000 0.000000
   orientation 0 0 0
:bonedata
   begin
      id 1
      name RightUpLeg_dum
      direction -1.000000 0.000000 0.000000
      length 3.693983
      axis 0.0 0.0 0.0 xyz
   end
   begin
      id 2
      name LeftUpLeg_dum
      direction 1.000000 0.000000 0.000000
      length 3.693983
      axis 0.0 0.0 0.0 xyz
   end
   begin
      id 3
      name Spine_dum
      direction 0.000000 1.000000 0.000000
      length 2.392956
      axis 0.0 0.0 0.0 xyz
   end
   begin
      id 4
      name RightUpLeg
      direction 0.000000 -1.000000 0.000000
      length 15.795667
      axis 0.0 0.0 0.0 xyz
      dof rx ry rz
   end
   begin
      id 5
      name RightLeg
      direction 0.000000 -1.000000 0.000000
      length 14.766989
      axis 0.0 0.0 0.0 xyz
      dof rx ry rz
   end
   begin
      id 6
      name RightFoot
      direction 0.000000 -0.258819 0.965926
      length 4.962790
      axis 15.0 0.0 0.0 xyz
      dof rx ry rz
   end
   begin
      id 7
      name RightToeBase
      direction 0.000000 0.000000 1.000000
      length 2.952750
      axis 0.0 0.0 0.0 xyz
      dof rx ry rz
   end
   begin
      id 8
      name LeftUpLeg
      direction 0.000000 -1.000000 0.000000
      length 15.795667
      axis 0.0 0.0 0.0 xyz
      dof rx ry rz
   end
   begin
      id 9
      name LeftLeg
      direction 0.000000 -1.000000 0.000000
      length 14.766989
      axis 0.0 0.0 0.0 xyz
      dof rx ry rz
   end
   begin
      id 10
      name LeftFoot
      direction 0.000000 -0.258819 0.965926
      length 4.962790
      axis 15.0 0.0 0.0 xyz
      dof rx ry rz
   end
   begin
      id 11
      name LeftToeBase
      direction 0.000000 0.000000 1.000000
      length 2.952750
      axis 0.0 0.0 0.0 xyz
      dof rx ry rz
   end
   begin
      id 12
      name Spine
      direction 0.000000 1.000000 0.000000
      length 0.000000
      axis 0.0 0.0 0.0 xyz
      dof rx ry rz
   end
   begin
      id 13
      name Spine_dum1
      direction 0.000000 1.000000 0.000000
      length 13.207411
      axis 0.0 0.0 0.0 xyz
   end
   begin
      id 14
      name Spine_dum2
      direction 0.000000 1.000000 0.000000
      length 13.207411
      axis 0.0 0.0 0.0 xyz
   end
   begin
      id 15
      name Spine_dum3
      direction 0.000000 1.000000 0.000000
      length 19.250100
      axis 0.0 0.0 0.0 xyz
   end
   begin
      id 16
      name RightShoulder
      direction -1.000000 0.000000 0.000000
      length 8.140465
      axis 0.0 0.0 90.0 xyz
      dof rx ry rz
   end
   begin
      id 17
      name RightArm
      direction -1.000000 0.000000 0.000000
      length 10.649840
      axis 0.0 0.0 90.0 xyz
      dof rx ry rz
   end
   begin
      id 18
      name RightForeArm
      direction -1.000000 0.000000 0.000000
      length 8.304624
      axis 0.0 0.0 90.0 xyz
      dof ry rz rx
   end
   begin
      id 19
      name RightHand
      direction -1.000000 0.000000 0.000000
      length 0.000000
      axis 0.0 0.0 90.0 xyz
      dof rx ry rz
   end
   begin
      id 20
      name RightHand_dum1
      direction -1.000000 0.000000 0.000000
      length 3.937000
      axis 0.0 0.0 90.0 xyz
   end
   begin
      id 21
      name RightHand_dum2
      direction 0.000000 0.000000 0.000000
      length 0.000000
      axis 0.0 0.0 90.0 xyz
   end
   begin
      id 22
      name RightHandThumb1
      direction 0.000000 0.000000 1.000000
      length 3.937000
      axis 0.0 0.0 90.0 xyz
      dof rx rz ry
   end
   begin
      id 23
      name LeftShoulder
      direction 1.000000 0.000000 0.000000
      length 8.140465
      axis 0.0 0.0 -90.0 xyz
      dof rx ry rz
   end
   begin
      id 24
      name LeftArm
      direction 1.000000 0.000000 0.000000
      length 10.649840
      axis 0.0 0.0 -90.0 xyz
      dof rx ry rz
   end
   begin
      id 25
      name LeftForeArm
      direction 1.000000 0.000000 0.000000
      length 8.304624
      axis 0.0 0.0 -90.0 xyz
      dof ry rz rx
   end
   begin
      id 26
      name LeftHand
      direction 1.000000 0.000000 0.000000
      length 0.000000
      axis 0.0 0.0 -90.0 xyz
      dof rx ry rz
   end
   begin
      id 27
      name LeftHand_dum1
      direction 1.000000 0.000000 0.000000
      length 3.937000
      axis 0.0 0.0 -90.0 xyz
   end
   begin
      id 28
      name LeftHand_dum2
      direction 0.000000 0.000000 0.000000
      length 0.000000
      axis 0.0 0.0 -90.0 xyz
   end
   begin
      id 29
      name LeftHandThumb1
      direction 0.000000 0.000000 1.000000
      length 3.937000
      axis 0.0 0.0 -90.0 xyz
      dof rx rz ry
   end
   begin
      id 30
      name Head
      direction 0.000000 1.000000 0.000000
      length 4.527550
      axis 0.0 0.0 0.0 xyz
      dof rx ry rz
   end
:hierarchy
   begin
      root RightUpLeg_dum LeftUpLeg_dum Spine_dum
      RightUpLeg_dum RightUpLeg
      LeftUpLeg_dum LeftUpLeg
      Spine_dum Spine
      RightUpLeg RightLeg
      RightLeg RightFoot
      RightFoot RightToeBase
      LeftUpLeg LeftLeg
      LeftLeg LeftFoot
      LeftFoot LeftToeBase
      Spine Spine_dum1 Spine_dum2 Spine_dum3
      Spine_dum1 RightShoulder
      Spine_dum2 LeftShoulder
      Spine_dum3 Head
      RightShoulder RightArm
      RightArm RightForeArm
      RightForeArm RightHand
      RightHand RightHand_dum1 RightHand_dum2
      RightHand_dum2 RightHandThumb1
      LeftShoulder LeftArm
      LeftArm LeftForeArm
      LeftForeArm LeftHand
      LeftHand LeftHand_dum1 LeftHand_dum2
      LeftHand_dum2 LeftHandThumb1
   end

# File created by Blade
# Date/Time:  Thu Jan 22 15:33:01 2015
# Frame Rate: 120.000 fps
#------------------------------------------------------
:FULLY-SPECIFIED
:DEGREES
327
root -10.392167 5.355456 5.094684 84.888590 -82.974387 -118.369808
RightUpLeg -97.100477 -1.221740 0.281716
RightLeg 140.664338 -0.000000 -0.000000
RightFoot -25.101706 -2.208922 9.877904
RightToeBase 27.577298 -0.000000 -0.000000
LeftUpLeg -100.261581 -0.039148 0.570939
LeftLeg 147.576991 -0.000000 -0.000000
LeftFoot -24.838734 12.893340 7.659329
LeftToeBase 12.500799 -0.000000 -0.000000
Spine 51.911356 6.146681 7.959612
RightShoulder 0.312952 -3.952243 -8.274506
RightArm -7.833922 -75.406960 103.426666
RightForeArm -1.129921 -0.000000 1.707696
RightHand 17.012387 -0.000000 -5.577085
RightHandThumb1 -24.326973 -0.000000 -32.862282
LeftShoulder 11.614699 17.908692 15.901473
LeftArm 43.599273 73.270581 -57.011372
LeftForeArm 32.796211 -0.000000 -0.770136
LeftHand -35.466695 -0.000000 15.297640
LeftHandThumb1 -26.253704 0.000000 33.147579
Head 67.960350 18.400029 53.333950
328
root -10.307245 5.252516 5.080981 83.326092 -82.920588 -119.253781
RightUpLeg -95.601576 -1.179788 0.050022
RightLeg 139.705507 -0.000000 -0.000000
RightFoot -23.496653 -1.669313 9.590182
RightToeBase 30.298853 -0.000000 -0.000000
LeftUpLeg -98.994130 0.256028 1.174346
LeftLeg 146.713703 -0.000000 -0.000000
LeftFoot -23.518184 11.630086 8.257170
LeftToeBase 15.105035 -0.000000 -0.000000
Spine 53.810527 6.150005 8.476562
RightShoulder 0.094936 -3.812121 -8.593807
RightArm -9.237902 -74.836040 105.147914
RightForeArm -1.711424 -0.000000 1.255109
RightHand 18.864828 -0.000000 -7.229439
RightHandThumb1 -24.326973 -0.000000 -32.862282
LeftShoulder 11.553087 17.539164 16.833001
LeftArm 43.882078 74.114765 -56.946199
LeftForeArm 32.944558 -0.000000 0.003601
LeftHand -36.117723 -0.000000 18.229515
LeftHandThumb1 -26.253704 0.000000 33.147579
Head 67.687727 18.421627 53.276357
329
root -10.212398 5.149059 5.080372 81.677140 -82.788246 -120.040581
RightUpLeg -94.045654 -1.173342 -0.051859
RightLeg 138.616734 -0.000000 -0.000000
RightFoot -21.974025 -1.161435 9.097585
RightToeBase 32.498990 -0.000000 -0.000000
LeftUpLeg -97.659135 0.450269 1.739993
LeftLeg 145.809768 -0.000000 -0.000000
LeftFoot -22.259086 10.603669 8.523664
LeftToeBase 16.172761 -0.000000 -0.000000
Spine 55.705390 6.042230 9.151307
RightShoulder -0.206437 -3.691989 -9.066530
RightArm -10.672250 -74.453351 106.879694
RightForeArm -2.170829 -0.000000 0.854960
RightHand 21.301953 -0.000000 -9.198216
RightHandThumb1 -24.326973 -0.000000 -32.862282
LeftShoulder 11.545544 17.157599 17.930818
LeftArm 45.858033 75.188465 -55.124076
LeftForeArm 31.806157 -0.000000 1.361584
LeftHand -36.651221 -0.000000 20.448247
LeftHandThumb1 -26.253704 0.000000 33.147579
Head 67.370668 18.458812 52.987699
330
root -10.108096 5.037089 5.083561 80.395128 -82.594829 -120.993104
RightUpLeg -92.650929 -1.151101 -0.029393
RightLeg 137.428661 -0.000000 -0.000000
RightFoot -20.468202 -0.720318 8.258560
RightToeBase 34.678983 -0.000000 -0.000000
LeftUpLeg -96.479687 0.607873 2.310860
LeftLeg 144.836099 -0.000000 -0.000000
LeftFoot -21.138888 9.754708 8.558601
LeftToeBase 16.328344 -0.000000 -0.000000
Spine 57.381675 5.858671 9.889660
RightShoulder -0.496327 -3.654121 -9.798102
RightArm -12.229233 -74.321664 108.823234
RightForeArm -2.061547 0.000000 0.650394
RightHand 24.197831 -0.000000 -11.970202
RightHandThumb1 -24.326973 -0.000000 -32.862282
LeftShoulder 11.221710 17.033992 19.094851
LeftArm 50.400592 76.180796 -50.625154
LeftForeArm 30.624195 0.000000 3.223388
LeftHand -37.112197 -0.000000 21.808613
LeftHandThumb1 -26.253704 0.000000 33.147579
Head 67.110576 18.573889 52.553561
331
root -10.006139 4.918024 5.085573 79.573240 -82.482863 -122.079245
RightUpLeg -91.569922 -1.091358 -0.008062
RightLeg 136.210750 -0.000000 -0.000000
RightFoot -18.903811 -0.602767 6.950889
RightToeBase 36.807434 -0.000000 -0.000000
LeftUpLeg -95.597750 0.786776 2.829305
LeftLeg 143.721077 -0.000000 -0.000000
LeftFoot -20.001688 9.043321 8.816672
LeftToeBase 17.323314 -0.000000 -0.000000
Spine 58.680934 5.646754 10.442396
RightShoulder -0.669320 -2.562331 -10.908563
RightArm -17.733105 -74.097007 114.719847
RightForeArm -1.077684 -0.000000 0.999742
RightHand 26.092094 -0.000000 -15.841534
RightHandThumb1 -24.326973 -0.000000 -32.862282
LeftShoulder 10.765778 16.886728 20.317371
LeftArm 54.044455 76.769096 -47.009382
LeftForeArm 29.765584 0.000000 5.437812
LeftHand -37.178602 -0.000000 22.542154
LeftHandThumb1 -26.253704 0.000000 33.147579
Head 67.017698 18.755798 52.093509
332
root -9.893597 4.799358 5.093230 78.912606 -82.404944 -123.241314
RightUpLeg -90.517874 -1.015177 0.021240
RightLeg 134.903817 -0.000000 -0.000000
RightFoot -17.166896 -0.732899 5.523168
RightToeBase 38.749218 -0.000000 -0.000000
LeftUpLeg -94.683941 0.938616 3.296661
LeftLeg 142.485012 -0.000000 -0.000000
LeftFoot -19.085166 8.500961 8.939088
LeftToeBase 17.580011 -0.000000 -0.000000
Spine 59.919157 5.475690 10.972726
RightShoulder -0.990688 -2.431255 -12.329907
RightArm -20.285415 -74.857007 117.832239
RightForeArm 0.322521 -0.000000 2.288468
RightHand 26.322955 0.000000 -18.113164
RightHandThumb1 -24.326973 -0.000000 -32.862282
LeftShoulder 10.389796 16.531714 21.648426
LeftArm 56.778084 77.262019 -44.438107
LeftForeArm 29.485421 -0.000000 7.642878
LeftHand -37.854539 -0.000000 23.297666
LeftHandThumb1 -26.253704 0.000000 33.147579
Head 66.744171 18.929552 51.732867
